<?xml version="1.0" standalone="no"?>
<!DOCTYPE svg PUBLIC "-//W3C//DTD SVG 20010904//EN"
 "http://www.w3.org/TR/2001/REC-SVG-20010904/DTD/svg10.dtd">
<svg version="1.0" xmlns="http://www.w3.org/2000/svg"
 width="512.000000pt" height="512.000000pt" viewBox="0 0 512.000000 512.000000"
 preserveAspectRatio="xMidYMid meet">

<g transform="translate(0.000000,512.000000) scale(0.100000,-0.100000)"
fill="#000000" stroke="none">
<path d="M1204 4131 c-44 -27 -59 -76 -45 -142 14 -66 31 -96 78 -140 74 -71
86 -74 302 -74 l193 0 57 62 c31 33 66 66 78 72 13 7 93 11 208 11 109 0 194
4 206 10 43 23 4 117 -71 170 -67 47 -95 50 -549 50 -402 0 -428 -1 -457 -19z"/>
<path d="M4088 3935 c-100 -56 -57 -225 57 -225 61 0 115 -50 115 -108 0 -77
-41 -111 -130 -112 -83 0 -126 -13 -161 -46 -52 -50 -46 -129 14 -180 30 -25
33 -26 151 -22 115 3 124 5 184 37 75 41 125 94 161 170 22 48 26 69 26 146 0
77 -4 98 -27 145 -62 127 -166 200 -292 207 -51 2 -79 -1 -98 -12z"/>
<path d="M810 2991 c-300 -64 -561 -266 -700 -541 -241 -478 -71 -1063 389
-1337 156 -94 292 -133 482 -140 116 -5 152 -2 240 17 412 87 716 390 800 795
28 135 33 125 -68 125 l-88 0 -16 -84 c-54 -279 -266 -528 -532 -624 -109 -39
-180 -52 -294 -52 -401 0 -742 279 -824 674 -93 452 205 899 660 991 112 23
294 16 399 -15 41 -12 75 -20 77 -18 8 9 76 150 73 152 -15 12 -100 38 -180
55 -124 27 -296 27 -418 2z"/>
<path d="M3925 2999 c-70 -12 -104 -23 -107 -32 -1 -5 11 -43 27 -86 l28 -77
61 13 c84 17 241 16 334 -3 165 -34 318 -120 439 -247 309 -326 309 -828 0
-1154 -176 -185 -391 -271 -651 -261 -101 4 -136 10 -216 37 -354 119 -583
434 -582 801 0 125 19 224 64 328 68 156 179 288 323 381 44 29 81 54 83 55 1
2 -12 40 -29 85 l-31 82 -66 -36 c-416 -229 -620 -722 -487 -1180 98 -338 364
-600 710 -701 132 -38 332 -45 467 -15 161 35 270 82 393 169 449 318 566 939
262 1395 -193 289 -513 459 -857 456 -63 -1 -137 -5 -165 -10z"/>
<path d="M1507 2785 c-20 -42 -37 -77 -37 -79 0 -2 19 -16 42 -31 104 -69 212
-197 273 -326 34 -74 75 -211 75 -256 0 -22 2 -23 90 -23 105 0 99 -10 71 125
-39 186 -124 352 -251 488 -66 71 -196 177 -217 177 -5 0 -25 -34 -46 -75z"/>
<path d="M985 2133 c-114 -31 -143 -193 -48 -261 64 -45 135 -37 192 22 82 84
29 231 -87 241 -20 2 -46 1 -57 -2z"/>
<path d="M4034 2126 c-71 -32 -104 -136 -66 -206 56 -102 207 -99 257 6 57
121 -70 255 -191 200z"/>
<path d="M2324 2062 c-52 -8 -53 -17 -56 -318 l-3 -279 -52 -3 c-42 -2 -56 -8
-73 -29 -25 -33 -25 -54 1 -87 l20 -26 179 0 179 0 20 26 c46 58 12 114 -69
114 l-49 0 -3 279 c-3 253 -5 281 -21 299 -20 22 -41 29 -73 24z"/>
</g>
</svg>
